<svg xmlns="http://www.w3.org/2000/svg"
     width="100%" height="100%"
     viewBox="0 0 300 300">
  <path id="Climber"
        fill="#95D5B2"
        d="M 36.37,57.73
           C 45.19,54.43 52.18,59.94 52.18,59.94
             52.18,59.94 77.16,98.89 77.16,98.89
             77.16,98.89 124.57,79.78 124.57,79.78
             124.57,79.78 154.70,80.15 154.70,80.15
             154.70,80.15 201.00,5.92 201.00,5.92
             201.00,5.92 206.15,-0.90 217.17,4.82
             225.99,10.23 221.58,18.05 221.58,18.05
             221.58,18.05 168.66,104.03 168.66,104.03
             168.66,104.03 168.66,159.16 168.66,159.16
             168.66,159.16 111.34,158.79 111.34,158.79
             111.34,158.79 110.97,111.75 110.97,111.75
             110.97,111.75 80.47,126.08 70.20,126.08
             62.83,126.08 29.76,72.80 29.76,72.80
             29.76,72.80 27.55,62.14 36.37,57.73 Z
           M 76.06,295.86
           C 57.87,287.59 65.04,273.81 65.04,273.81
             65.04,273.81 110.24,169.08 110.24,169.08
             110.24,169.08 168.69,169.13 168.69,169.13
             168.69,169.13 168.69,159.16 168.69,159.16
             168.69,159.16 192.92,144.92 203.94,144.92
             212.76,144.02 214.97,152.54 214.97,152.54
             214.97,152.54 230.40,210.87 230.40,210.87
             230.40,210.87 234.81,223.10 223.78,229.71
             210.56,237.43 203.94,225.30 203.94,225.30
             203.94,225.30 194.02,182.81 194.02,182.81
             194.02,182.81 155.64,209.97 130.88,203.75
             130.88,203.75 95.90,284.83 95.90,284.83
             95.90,284.83 91.56,300.89 76.06,295.86 Z
           M 159.84,209.87
           C 159.84,209.87 168.66,205.46 168.66,205.46
             168.66,205.46 168.36,299.55 168.36,299.55
             168.36,299.55 159.82,299.55 159.82,299.55
             159.82,299.55 159.84,209.87 159.84,209.87 Z
           M 177.48,143.72
           C 177.48,143.72 177.48,134.90 177.48,134.90
             248.04,90.81 256.82,1.00 256.82,1.00
             256.82,1.00 264.73,0.91 264.73,0.91
             264.73,0.91 254.65,99.62 177.48,143.72 Z
           M 113.54,51.12
           C 113.54,51.12 113.54,29.07 135.59,29.07
             157.64,29.07 157.64,53.32 157.64,53.32
             157.64,53.32 157.64,73.17 135.59,73.17
             113.54,73.17 113.54,51.12 113.54,51.12 Z
           M 235.81,142.52" />
</svg>
