<svg xmlns="http://www.w3.org/2000/svg"
     width="100%" height="100%"
     viewBox="0 0 300 300">
  <path id="Climber"
        fill="#1B4332" stroke="none" stroke-width="0"
        d="M 46.00,62.00
           C 54.00,59.00 60.33,64.00 60.33,64.00
             60.33,64.00 83.00,99.33 83.00,99.33
             83.00,99.33 126.00,82.00 126.00,82.00
             126.00,82.00 153.33,82.33 153.33,82.33
             153.33,82.33 195.33,15.00 195.33,15.00
             195.33,15.00 200.00,8.82 210.00,14.00
             218.00,18.91 214.00,26.00 214.00,26.00
             214.00,26.00 166.00,104.00 166.00,104.00
             166.00,104.00 166.00,154.00 166.00,154.00
             166.00,154.00 114.00,153.67 114.00,153.67
             114.00,153.67 113.67,111.00 113.67,111.00
             113.67,111.00 86.00,124.00 76.69,124.00
             70.00,124.00 40.00,75.67 40.00,75.67
             40.00,75.67 38.00,66.00 46.00,62.00 Z
           M 82.00,278.00
           C 65.50,270.50 72.00,258.00 72.00,258.00
             72.00,258.00 113.00,163.00 113.00,163.00
             113.00,163.00 166.02,163.04 166.02,163.04
             166.02,163.04 166.02,154.00 166.02,154.00
             166.02,154.00 188.00,141.09 198.00,141.09
             206.00,140.27 208.00,148.00 208.00,148.00
             208.00,148.00 222.00,200.91 222.00,200.91
             222.00,200.91 226.00,212.00 216.00,218.00
             204.00,225.00 198.00,214.00 198.00,214.00
             198.00,214.00 189.00,175.45 189.00,175.45
             189.00,175.45 154.18,200.09 131.73,194.45
             131.73,194.45 100.00,268.00 100.00,268.00
             100.00,268.00 96.06,282.56 82.00,278.00 Z
           M 158.00,200.00
           C 158.00,200.00 166.00,196.00 166.00,196.00
             166.00,196.00 166.00,290.00 166.00,290.00
             166.00,290.00 158.00,290.00 158.00,290.00
             158.00,290.00 158.00,200.00 158.00,200.00 Z
           M 174.00,140.00
           C 174.00,140.00 174.00,132.00 174.00,132.00
             238.00,92.00 246.00,6.00 246.00,6.00
             246.00,6.00 254.00,6.00 254.00,6.00
             254.00,6.00 244.00,100.00 174.00,140.00 Z
           M 116.00,56.00
           C 116.00,56.00 116.00,36.00 136.00,36.00
             156.00,36.00 156.00,58.00 156.00,58.00
             156.00,58.00 156.00,76.00 136.00,76.00
             116.00,76.00 116.00,56.00 116.00,56.00 Z
           M 226.91,138.91" />
</svg>